:SAMPLES-PER-SECOND 30
:FRAME-RANGE 1-2643
:FULLY-SPECIFIED
:DEGREES
1487
root  6.9457 35.3837 -15.7322 53.507 83.1727 46.8969
RightUpLeg  -12.9528 -3.25089 -13.9927
RightLeg  70.7714 -2.30068 -8.20139
RightFoot  -0.0505921 -1.03735 10.4632
RightToes  7.56698e-010 0 -3.6325e-017
Spine  26.8489 3.11067 2.55064
Spine1  1.47634 4.76069 -6.07115
HEad  -14.7058 -16.1712 3.28839
LeftShoulder1  1.83178 -2.5109 -24.2343
LeftArm  -2.71656 -22.2692 -20.3756
LeftForeArm  12.7376 -37.7386 -7.89461
LeftHand  0.105487 -1.62362 -1.60734
RightShoulder  13.7417 32.7423 31.4633
RightArm  -24.9547 31.9708 9.91239
RightForeArm  30.0929 47.0234 9.84343
RightHand  -0.587938 2.83104 -8.51524
LeftUpLeg  -39.8081 9.8596 -2.46254
LeftLeg  49.387 1.53786 2.38187
LeftFoot  -17.2441 -0.36235 -9.01461
LeftToes  1.48244e-010 1.61973e-010 3.308e-011
1488
root  8.65142 35.1231 -15.9074 56.7346 83.6684 50.9878
RightUpLeg  -20.8319 -8.12977 -12.5792
RightLeg  79.1155 -1.22526 -9.47429
RightFoot  -5.77143 -0.559325 10.6589
RightToes  7.56698e-010 0 -3.6325e-017
Spine  27.2962 2.42239 1.06866
Spine1  1.77206 3.66898 -5.47028
HEad  -14.656 -15.7032 4.4252
LeftShoulder1  2.05757 -3.51908 -23.0238
LeftArm  -2.71646 -36.3427 -23.982
LeftForeArm  11.9502 -32.6686 -6.54295
LeftHand  0.0281784 -1.85361 -0.291491
RightShoulder  13.0461 33.1148 29.1391
RightArm  -25.0182 33.2232 9.72311
RightForeArm  32.0114 46.0045 9.32438
RightHand  -0.603733 2.92609 -8.64407
LeftUpLeg  -37.2829 9.46574 -2.21668
LeftLeg  52.6339 1.12171 2.07748
LeftFoot  -21.7901 -0.729658 -9.39057
LeftToes  1.48244e-010 1.61973e-010 3.308e-011
1489
root  10.47 34.9304 -16.1415 60.9285 83.9502 55.491
RightUpLeg  -30.1472 -13.6053 -9.72842
RightLeg  82.4315 -0.928195 -12.1411
RightFoot  -9.24085 -0.263411 10.901
RightToes  7.56698e-010 0 -3.6325e-017
Spine  27.1318 1.65375 -0.681312
Spine1  1.94328 2.2781 -3.79659
HEad  -15.1802 -14.9715 5.26493
LeftShoulder1  2.17482 -4.44846 -20.9589
LeftArm  -3.40169 -48.2051 -28.92
LeftForeArm  12.6592 -29.3495 -5.6797
LeftHand  -0.0327669 -1.82473 0.689635
RightShoulder  12.2502 33.3995 26.6392
RightArm  -24.8685 34.0401 9.43061
RightForeArm  33.5544 45.9626 9.20099
RightHand  -0.602538 2.64124 -8.91323
LeftUpLeg  -34.5349 10.0696 -2.4551
LeftLeg  54.7186 0.50219 1.29427
LeftFoot  -25.9792 -1.01105 -9.0707
LeftToes  1.48244e-010 1.61973e-010 3.308e-011
1490
root  12.4754 34.8373 -16.42 60.7125 84.0214 55.7506
RightUpLeg  -38.9551 -17.8531 -5.48258
RightLeg  80.0291 -1.9304 -15.3156
RightFoot  -12.0099 -0.0186824 10.7872
RightToes  7.56698e-010 0 -3.6325e-017
Spine  26.7992 0.972448 -2.30861
Spine1  2.06997 0.800554 -1.07032
HEad  -15.3305 -13.971 5.34814
LeftShoulder1  2.16881 -5.23877 -18.2328
LeftArm  -3.52336 -57.8061 -35.1284
LeftForeArm  12.9997 -27.6122 -5.25432
LeftHand  -0.090174 -1.69013 1.63647
RightShoulder  11.6828 33.4502 25.0024
RightArm  -23.6679 33.7969 9.36306
RightForeArm  34.1564 48.8409 10.2634
RightHand  -0.603936 2.11983 -9.51442
LeftUpLeg  -30.5094 10.9085 -2.4565
LeftLeg  55.6105 0.0952361 0.691888
LeftFoot  -29.8232 -1.20849 -8.51843
LeftToes  1.48244e-010 1.61973e-010 3.308e-011
1491
root  14.6337 34.8425 -16.7245 58.2858 83.8736 54.3417
RightUpLeg  -45.2387 -20.8032 -1.15857
RightLeg  72.2531 -4.68077 -16.9669
RightFoot  -13.3707 0.104097 10.9864
RightToes  7.56698e-010 0 -3.6325e-017
Spine  26.7669 0.271167 -3.11273
Spine1  1.94543 -0.536827 1.49516
HEad  -14.6236 -13.6386 5.11331
LeftShoulder1  2.08297 -5.8645 -15.4373
LeftArm  0.474032 -66.1542 -43.8002
LeftForeArm  11.2315 -26.0689 -5.00021
LeftHand  -0.0962341 -1.77243 1.72331
RightShoulder  11.5527 32.3606 25.6651
RightArm  -20.7241 32.063 10.196
RightForeArm  36.0753 56.3963 13.8063
RightHand  -0.541991 1.73666 -8.99049
LeftUpLeg  -24.7314 11.8877 -2.33411
LeftLeg  54.9716 -0.23373 0.170871
LeftFoot  -33.3668 -1.38447 -8.13808
LeftToes  1.48244e-010 1.61973e-010 3.308e-011
1492
root  16.9573 34.9583 -17.0339 54.4296 83.056 51.2896
RightUpLeg  -48.6547 -21.8358 2.30883
RightLeg  59.5068 -7.86516 -14.5793
RightFoot  -14.6425 0.244081 11.8913
RightToes  7.56698e-010 0 -3.6325e-017
Spine  26.3013 -0.583556 -3.50219
Spine1  1.57169 -1.83919 3.48509
HEad  -13.4127 -13.9527 4.53488
LeftShoulder1  1.91887 -6.36767 -12.3645
LeftArm  8.92891 -72.6344 -54.1244
LeftForeArm  7.69904 -24.0599 -4.74447
LeftHand  -0.0451397 -2.23391 0.875145
RightShoulder  11.918 30.7855 28.3443
RightArm  -15.164 28.8271 12.2284
RightForeArm  40.9361 66.5039 21.9221
RightHand  -0.517876 1.15225 -9.3179
LeftUpLeg  -18.0814 13.5114 -2.61675
LeftLeg  52.4311 -0.172427 0.254712
LeftFoot  -35.9439 -1.57315 -8.20073
LeftToes  1.48244e-010 1.61973e-010 3.308e-011
1493
root  19.447 35.1037 -17.2932 47.9775 81.5083 44.8087
RightUpLeg  -49.5553 -22.206 6.19933
RightLeg  41.8815 -9.41433 -9.20625
RightFoot  -14.8326 0.283605 12.5746
RightToes  7.56698e-010 0 -3.6325e-017
Spine  24.8664 -1.36788 -4.0712
Spine1  0.987795 -3.16153 5.84902
HEad  -12.3363 -14.2502 3.47937
LeftShoulder1  1.63919 -6.23694 -9.4653
LeftArm  17.3309 -77.975 -66.4554
LeftForeArm  7.94198 -20.4665 -6.01231
LeftHand  0.025663 -2.36237 -0.192853
RightShoulder  12.6922 29.46 32.1843
RightArm  -6.94993 23.1545 14.4615
RightForeArm  60.2315 76.6386 43.9121
RightHand  -0.434488 0.851779 -8.19133
LeftUpLeg  -11.4525 17.0838 -2.72849
LeftLeg  48.6314 0.158913 0.649296
LeftFoot  -37.2259 -2.04736 -9.87079
LeftToes  1.48244e-010 1.61973e-010 3.308e-011
1494
root  22.2136 35.1398 -17.4749 45.2174 79.3917 41.4583
RightUpLeg  -48.9886 -24.1794 11.7898
RightLeg  23.877 -9.72954 -4.89298
RightFoot  -12.0127 -0.00562782 12.9691
RightToes  7.56698e-010 0 -3.6325e-017
Spine  22.359 -2.39224 -5.33049
Spine1  0.551699 -4.88698 8.78914
HEad  -11.2966 -14.2724 1.2739
LeftShoulder1  1.42961 -6.00481 -7.45892
LeftArm  20.7451 -82.6244 -79.0393
LeftForeArm  13.6422 -15.7253 -9.08576
LeftHand  0.0809022 -2.32444 -1.03091
RightShoulder  12.8188 27.1931 35.49
RightArm  4.08148 17.5791 17.8324
RightForeArm  105.347 80.631 89.5952
RightHand  -0.432244 0.884263 -8.11018
LeftUpLeg  -4.96995 21.6318 -2.59751
LeftLeg  44.9126 -0.166685 0.251664
LeftFoot  -36.7313 -2.70219 -12.9368
LeftToes  1.48244e-010 1.61973e-010 3.308e-011
1495
root  25.2241 34.9164 -17.6431 49.7517 77.5127 45.1482
RightUpLeg  -49.3671 -27.8033 16.5806
RightLeg  15.1417 -9.96243 -2.18033
RightFoot  -12.3774 0.0600322 15.8944
RightToes  7.56698e-010 0 -3.6325e-017
Spine  19.8269 -4.35208 -6.99394
Spine1  -0.74943 -7.45857 12.2542
HEad  -10.7484 -14.1534 -1.4938
LeftShoulder1  1.19046 -5.71674 -5.06906
LeftArm  44.2842 -86.7493 -117.024
LeftForeArm  21.6477 -7.99515 -11.1488
LeftHand  0.0877494 -1.66731 -1.3003
RightShoulder  13.0868 26.2912 37.6261
RightArm  13.9083 13.312 20.2049
RightForeArm  135.385 79.4819 118.212
RightHand  -0.431931 1.60134 -7.32938
LeftUpLeg  0.484509 23.84 -3.0427
LeftLeg  43.0832 -1.04747 -0.631457
LeftFoot  -34.1285 -3.28279 -17.2001
LeftToes  1.48244e-010 1.61973e-010 3.308e-011
1496
root  28.1486 34.6711 -17.7936 51.8508 75.2135 46.2098
RightUpLeg  -50.7762 -26.9457 17.9738
RightLeg  18.4049 -8.83879 -3.47228
RightFoot  -9.95409 -0.164947 8.01667
RightToes  7.56698e-010 0 -3.6325e-017
Spine  19.3368 -5.77638 -8.11967
Spine1  -3.3414 -9.61019 16.6007
HEad  -11.196 -14.4293 -3.85679
LeftShoulder1  0.908613 -5.50883 -1.86615
LeftArm  117.032 -84.7386 164.967
LeftForeArm  18.8568 -1.70174 -9.34069
LeftHand  0.08742 -0.157472 -1.82694
RightShoulder  13.8049 27.0505 38.8141
RightArm  19.1126 11.762 21.4855
RightForeArm  143.917 78.9423 124.26
RightHand  -0.395486 2.25813 -6.19565
LeftUpLeg  4.11647 25.6244 -3.34118
LeftLeg  43.3163 -2.16869 -1.77748
LeftFoot  -27.5793 -3.13429 -22.8529
LeftToes  1.48244e-010 1.61973e-010 3.308e-011
1497
root  30.8271 34.3456 -17.9081 43.7522 72.1051 36.5897
RightUpLeg  -54.0329 -16.7642 13.31
RightLeg  32.1761 -15.6015 -10.5645
RightFoot  -7.80713 0.29746 -11.2967
RightToes  7.56698e-010 0 -3.6325e-017
Spine  22.3371 -5.64335 -7.53132
Spine1  -7.17313 -10.0901 21.0821
HEad  -14.4671 -14.3753 -4.66166
LeftShoulder1  0.640555 -5.18701 1.21984
LeftArm  136.889 -79.6191 146.366
LeftForeArm  15.5917 1.20824 -8.71969
LeftHand  0.0989816 0.564538 -2.48318
RightShoulder  15.2445 29.3938 39.8393
RightArm  20.8355 14.0236 22.8071
RightForeArm  138.557 79.6731 118.008
RightHand  -0.481627 2.65826 -7.15684
LeftUpLeg  4.66283 28.5319 -2.0376
LeftLeg  47.1423 -2.85132 -2.85989
LeftFoot  -16.4345 -1.26749 -30.0364
LeftToes  1.48244e-010 1.61973e-010 3.308e-011
1498
root  33.2791 33.7292 -18.0454 31.0432 69.0588 23.1714
RightUpLeg  -55.8809 -7.55057 10.3249
RightLeg  44.8352 -16.3208 -16.9281
RightFoot  -8.08648 0.275479 -11.56
RightToes  7.56698e-010 0 -3.6325e-017
Spine  25.7256 -6.33017 -4.37553
Spine1  -8.57193 -9.69324 22.9127
HEad  -21.5175 -13.101 -1.92197
LeftShoulder1  0.326102 -3.71624 4.48211
LeftArm  150.414 -73.702 138.091
LeftForeArm  18.9356 0.635888 -10.0652
LeftHand  0.156323 0.0069177 -3.40186
RightShoulder  18.5746 34.2777 42.3034
RightArm  15.9651 18.4597 22.8064
RightForeArm  121.528 80.7942 99.4939
RightHand  -0.646978 2.90364 -9.26853
LeftUpLeg  2.46453 29.0042 0.826006
LeftLeg  55.6073 -3.0282 -4.2501
LeftFoot  -1.06706 3.09103 -33.4116
LeftToes  1.48244e-010 1.61973e-010 3.308e-011
1499
root  35.426 32.9259 -18.1199 22.7075 65.7616 12.4201
RightUpLeg  -59.0798 -3.54352 12.3042
RightLeg  53.6662 -14.2146 -20.0948
RightFoot  -11.2937 -0.0708228 -12.2436
RightToes  7.56698e-010 0 -3.6325e-017
Spine  27.6414 -5.99431 -1.61842
Spine1  -7.84085 -9.56458 25.9365
HEad  -25.9291 -12.2895 1.60997
LeftShoulder1  0.128002 -2.5877 7.24893
LeftArm  145.601 -68.9805 141.748
LeftForeArm  14.7877 -0.415327 -10.4235
LeftHand  0.384992 -0.506979 -7.56781
RightShoulder  19.902 36.0635 43.2784
RightArm  8.82678 21.9677 23.3389
RightForeArm  102.537 80.8114 79.0752
RightHand  -0.857456 2.53906 -12.7278
LeftUpLeg  -5.29423 26.0815 0.558383
LeftLeg  65.8251 -3.3098 -7.37578
LeftFoot  11.5549 5.36258 -26.4131
LeftToes  1.48244e-010 1.61973e-010 3.308e-011
1500
root  37.7275 32.6375 -18.082 20.8859 60.6773 8.823
RightUpLeg  -59.9236 -2.66023 12.5153
RightLeg  59.1679 -10.2848 -18.3914
RightFoot  -15.9315 -0.527975 -10.4596
RightToes  7.56698e-010 0 -3.6325e-017
Spine  29.1651 -4.30354 -1.97666
Spine1  -7.41273 -8.72722 28.5888
HEad  -26.8024 -13.1919 4.24325
LeftShoulder1  0.00188312 -2.34066 9.62057
LeftArm  138.643 -66.7864 147.476
LeftForeArm  12.0911 0.567673 -11.3609
LeftHand  0.606259 -1.237 -10.5259
RightShoulder  20.4149 35.4484 45.2509
RightArm  1.55445 23.8018 20.1686
RightForeArm  93.3117 80.424 74.292
RightHand  -1.02739 1.81978 -16.6372
LeftUpLeg  -13.695 22.6455 -1.4473
LeftLeg  75.3308 -2.78978 -11.0746
LeftFoot  5.79738 3.58186 -23.7022
LeftToes  1.48244e-010 1.61973e-010 3.308e-011
